<svg width="891" height="132" viewBox="0 0 891 132" fill="none" xmlns="http://www.w3.org/2000/svg">
<path d="M882 2.5V114.5" stroke="#00BF63" stroke-width="17"/>
<path d="M563 118V56.5L609.5 96L661.5 47V112" stroke="#00BF63" stroke-width="17"/>
<path d="M705 34V115" stroke="#00BF63" stroke-width="17"/>
<path d="M752 115V27.5L835 106V11" stroke="#00BF63" stroke-width="17"/>
<path d="M10 115.5V10C30.8333 10 77.1 21.2 95.5 66C113.9 110.8 46.1667 117.667 10 115.5Z" stroke="#00BF63" stroke-width="20"/>
<path d="M124 123.5L164.954 42.5L191.449 93.5411M207 123.5L191.449 93.5411M191.449 93.5411H146.934" stroke="#00BF63" stroke-width="20"/>
<path d="M242 116.5V52H210.5H275" stroke="#00BF63" stroke-width="20"/>
<path d="M280.5 117.5L317.5 59L345.513 93.5M365 117.5L345.513 93.5M345.513 93.5L297.5 97.5" stroke="#00BF63" stroke-width="17"/>
<path d="M393.5 50.5V114.5H437" stroke="#00BF63" stroke-width="17"/>
<path d="M460 59V102C474.5 118.167 507.6 140.3 524 99.5V62" stroke="#00BF63" stroke-width="17"/>
</svg>
